<svg width="41" height="26" viewBox="0 0 41 26" fill="none" xmlns="http://www.w3.org/2000/svg">
<rect y="8.10507" width="37" height="18" rx="4" transform="rotate(-12.6536 0 8.10507)" fill="#FF1A1A"/>
<path d="M7.15534 18.7271L7.75329 17.1724C8.08986 17.3933 8.47542 17.5555 8.90994 17.6588C9.35152 17.751 9.77721 17.7511 10.187 17.6591C10.6879 17.5466 11.0716 17.317 11.3381 16.9702C11.6046 16.6234 11.6908 16.2405 11.5967 15.8216C11.4863 15.3299 11.2067 15.0005 10.7579 14.8334C10.3182 14.6643 9.79323 14.6482 9.18308 14.7852L8.51375 14.9355L7.92886 14.1198L9.23237 11.6175C9.31098 11.4563 9.39164 11.3043 9.47434 11.1614C9.5641 11.0073 9.63472 10.8958 9.6862 10.8268L9.76342 10.7234L9.75729 10.6961C9.56308 10.7684 9.27928 10.8465 8.90591 10.9303L6.01 11.5804L5.66958 10.0642L11.5844 8.73626L11.8328 9.84272L10.086 13.1189C10.837 13.0555 11.5238 13.217 12.1462 13.6034C12.7757 13.9786 13.1793 14.5624 13.3572 15.3547C13.5535 16.2289 13.4125 17.0497 12.9344 17.8171C12.4541 18.5754 11.6949 19.071 10.6568 19.3041C10.0648 19.437 9.45749 19.4586 8.8347 19.3688C8.21897 19.2679 7.65919 19.054 7.15534 18.7271ZM20.6143 16.6668C20.2071 17.0261 19.6848 17.2773 19.0473 17.4204C18.4098 17.5635 17.8257 17.5607 17.2949 17.412C16.7732 17.2613 16.3272 16.9788 15.9568 16.5646C15.5864 16.1503 15.272 15.6661 15.0137 15.1119C14.7644 14.5557 14.558 13.9133 14.3945 13.1847C14.2309 12.4562 14.1429 11.7872 14.1304 11.1778C14.1271 10.5664 14.2053 9.99879 14.3651 9.47506C14.5249 8.95133 14.8084 8.50984 15.2156 8.15058C15.6228 7.79132 16.1497 7.53911 16.7963 7.39395C19.1367 6.86851 20.681 8.27231 21.4293 11.6053C21.5929 12.3339 21.6764 13.0039 21.6797 13.6153C21.6922 14.2247 21.6195 14.7958 21.4617 15.3287C21.3131 15.8595 21.0306 16.3055 20.6143 16.6668ZM16.2112 12.7769C16.7224 15.0535 17.5471 16.0641 18.6854 15.8085C19.8238 15.5529 20.1374 14.2868 19.6262 12.0102C19.1212 9.76081 18.2996 8.76392 17.1612 9.01949C16.0229 9.27506 15.7062 10.5275 16.2112 12.7769ZM26.3111 9.13189C25.968 9.64893 25.4869 9.97696 24.8676 10.116C24.2484 10.255 23.6732 10.1641 23.142 9.84338C22.6199 9.52057 22.2914 9.05864 22.1565 8.4576C22.0236 7.86567 22.1241 7.31221 22.4581 6.79721C22.7991 6.27106 23.2793 5.93847 23.8985 5.79944C24.5087 5.66246 25.0803 5.7589 25.6135 6.08878C26.1538 6.4075 26.4904 6.86283 26.6233 7.45476C26.7582 8.0558 26.6542 8.61484 26.3111 9.13189ZM24.2277 16.0852L29.4949 4.71518L31.0931 4.35637L25.8259 15.7263L24.2277 16.0852ZM23.8852 8.74387C24.0971 8.87805 24.3305 8.91652 24.5855 8.85927C24.8405 8.80203 25.035 8.66747 25.1692 8.4556C25.3125 8.24168 25.3555 8.00723 25.2983 7.75224C25.2431 7.50636 25.105 7.31735 24.884 7.18522C24.6701 7.04193 24.4356 6.99891 24.1807 7.05616C23.9257 7.1134 23.7321 7.25252 23.6 7.4735C23.4658 7.68537 23.4263 7.91425 23.4815 8.16012C23.5388 8.41511 23.6733 8.60969 23.8852 8.74387ZM29.724 14.3633C29.2019 14.0405 28.8744 13.5832 28.7415 12.9912C28.6086 12.3993 28.7092 11.8458 29.0431 11.3308C29.3842 10.8047 29.8643 10.4721 30.4836 10.3331C31.0937 10.1961 31.6654 10.2925 32.1986 10.6224C32.7298 10.9432 33.0618 11.3995 33.1947 11.9914C33.3276 12.5834 33.2225 13.1379 32.8794 13.6549C32.5455 14.1699 32.0689 14.4969 31.4496 14.6359C30.8303 14.775 30.2551 14.6841 29.724 14.3633ZM30.0635 12.6801C30.1207 12.9351 30.2553 13.1296 30.4672 13.2638C30.679 13.398 30.9125 13.4365 31.1675 13.3792C31.4224 13.322 31.617 13.1874 31.7512 12.9756C31.8945 12.7616 31.9375 12.5272 31.8803 12.2722C31.8251 12.0263 31.687 11.8373 31.466 11.7052C31.2521 11.5619 31.0176 11.5189 30.7626 11.5761C30.5077 11.6334 30.3141 11.7725 30.182 11.9935C30.0478 12.2053 30.0083 12.4342 30.0635 12.6801Z" fill="white"/>
</svg>
