<svg width="41" height="26" viewBox="0 0 41 26" fill="none" xmlns="http://www.w3.org/2000/svg">
<rect y="8.10507" width="37" height="18" rx="4" transform="rotate(-12.6536 0 8.10507)" fill="#FF1A1A"/>
<path d="M7.76639 19.581L8.38413 18.0505C9.12122 18.5642 9.88135 18.7331 10.6645 18.5573C11.1563 18.4469 11.546 18.2016 11.8337 17.8213C12.1284 17.4299 12.2206 16.9883 12.1102 16.4966C11.9978 15.9957 11.7247 15.6314 11.2909 15.4035C10.8571 15.1757 10.3579 15.1251 9.79329 15.2519C9.256 15.3725 8.7858 15.6216 8.38269 15.999L7.31944 15.8647L6.66618 10.8459L11.775 9.69891L12.1154 11.2152L8.53651 12.0187L8.74506 13.6506L8.77796 14.1167L8.80528 14.1106C9.04577 13.9036 9.37547 13.753 9.79437 13.659C10.8325 13.4259 11.7297 13.5449 12.486 14.016C13.2422 14.4871 13.7215 15.1735 13.9239 16.075C14.1386 17.0312 13.9851 17.9027 13.4634 18.6894C12.9397 19.467 12.177 19.9683 11.1753 20.1932C10.5833 20.3261 9.98862 20.34 9.3911 20.235C8.79359 20.13 8.25202 19.912 7.76639 19.581ZM21.1064 17.5618C20.6992 17.921 20.1769 18.1722 19.5394 18.3153C18.902 18.4585 18.3178 18.4557 17.7871 18.307C17.2654 18.1563 16.8193 17.8738 16.4489 17.4596C16.0785 17.0453 15.7641 16.5611 15.5058 16.0069C15.2566 15.4506 15.0502 14.8082 14.8866 14.0797C14.723 13.3512 14.635 12.6822 14.6226 12.0728C14.6192 11.4613 14.6974 10.8938 14.8573 10.37C15.0171 9.8463 15.3006 9.4048 15.7078 9.04555C16.115 8.68629 16.6418 8.43408 17.2884 8.28892C19.6288 7.76348 21.1732 9.16727 21.9215 12.5003C22.085 13.2288 22.1685 13.8988 22.1719 14.5103C22.1843 15.1197 22.1117 15.6908 21.9539 16.2236C21.8052 16.7544 21.5227 17.2005 21.1064 17.5618ZM16.7034 13.6718C17.2145 15.9485 18.0392 16.959 19.1776 16.7035C20.3159 16.4479 20.6295 15.1818 20.1184 12.9051C19.6134 10.6558 18.7917 9.65889 17.6534 9.91446C16.515 10.17 16.1984 11.4225 16.7034 13.6718ZM26.8032 10.0269C26.4602 10.5439 25.979 10.8719 25.3598 11.011C24.7405 11.15 24.1653 11.0591 23.6341 10.7383C23.1121 10.4155 22.7836 9.95361 22.6486 9.35257C22.5157 8.76064 22.6163 8.20717 22.9502 7.69217C23.2913 7.16602 23.7714 6.83343 24.3906 6.69441C25.0008 6.55742 25.5725 6.65387 26.1057 6.98374C26.646 7.30247 26.9825 7.7578 27.1154 8.34973C27.2504 8.95077 27.1463 9.50981 26.8032 10.0269ZM24.7198 16.9801L29.9871 5.61014L31.5853 5.25133L26.318 16.6213L24.7198 16.9801ZM24.3773 9.63884C24.5892 9.77302 24.8226 9.81149 25.0776 9.75424C25.3326 9.69699 25.5272 9.56243 25.6614 9.35056C25.8046 9.13664 25.8477 8.90219 25.7904 8.64721C25.7352 8.40133 25.5971 8.21232 25.3761 8.08018C25.1622 7.9369 24.9278 7.89388 24.6728 7.95112C24.4178 8.00837 24.2242 8.14748 24.0921 8.36846C23.9579 8.58033 23.9184 8.80921 23.9736 9.05509C24.0309 9.31008 24.1654 9.50466 24.3773 9.63884ZM30.2161 15.2583C29.694 14.9355 29.3666 14.4781 29.2337 13.8862C29.1008 13.2943 29.2013 12.7408 29.5353 12.2258C29.8763 11.6996 30.3564 11.367 30.9757 11.228C31.5858 11.091 32.1575 11.1875 32.6907 11.5174C33.2219 11.8381 33.5539 12.2945 33.6868 12.8864C33.8197 13.4783 33.7146 14.0328 33.3716 14.5499C33.0376 15.0649 32.561 15.3919 31.9417 15.5309C31.3225 15.6699 30.7473 15.5791 30.2161 15.2583ZM30.5556 13.575C30.6129 13.83 30.7474 14.0246 30.9593 14.1588C31.1712 14.293 31.4046 14.3314 31.6596 14.2742C31.9146 14.2169 32.1092 14.0824 32.2433 13.8705C32.3866 13.6566 32.4296 13.4221 32.3724 13.1672C32.3172 12.9213 32.1791 12.7323 31.9581 12.6001C31.7442 12.4569 31.5098 12.4138 31.2548 12.4711C30.9998 12.5283 30.8062 12.6674 30.6741 12.8884C30.5399 13.1003 30.5004 13.3292 30.5556 13.575Z" fill="white"/>
</svg>
